<?xml version="1.0" standalone="no"?>
<!DOCTYPE svg PUBLIC "-//W3C//DTD SVG 20010904//EN"
 "http://www.w3.org/TR/2001/REC-SVG-20010904/DTD/svg10.dtd">
<svg version="1.0" xmlns="http://www.w3.org/2000/svg"
 width="200.000000pt" height="200.000000pt" viewBox="0 0 200.000000 200.000000"
 preserveAspectRatio="xMidYMid meet">

<g transform="translate(0.000000,200.000000) scale(0.100000,-0.100000)"
fill="#000000" stroke="none">
<path d="M712 1132 l3 -607 33 -67 c54 -110 165 -191 281 -205 l51 -6 0 274 0
274 -77 0 c-77 0 -148 19 -137 36 3 5 9 7 14 4 11 -7 7 22 -5 32 -4 4 -5 2 0
-6 6 -10 4 -12 -4 -6 -7 4 -9 10 -4 14 13 12 113 41 142 41 39 0 71 11 71 24
0 7 -28 11 -83 11 -57 0 -91 6 -112 17 -33 17 -43 53 -19 62 10 4 13 2 8 -7
-4 -6 3 -3 16 8 13 11 29 23 35 27 5 4 25 20 44 35 19 16 37 27 40 26 12 -5
41 9 41 20 0 7 8 3 16 -8 14 -18 15 -1 12 180 -3 185 -5 204 -27 253 -30 66
-113 144 -177 166 -26 9 -74 16 -106 16 l-58 0 2 -608z"/>
<path d="M1092 1073 l3 -158 49 3 c136 7 268 132 284 268 l5 44 -172 0 -172 0
3 -157z"/>
</g>
</svg>
